<svg xmlns="http://www.w3.org/2000/svg" version="1.1" xmlns:xlink="http://www.w3.org/1999/xlink" xmlns:svgjs="http://svgjs.dev/svgjs" width="1500" height="1500" viewBox="0 0 1500 1500"><g transform="matrix(1,0,0,1,0,0)"><svg viewBox="0 0 280 280" data-background-color="#fafafa" preserveAspectRatio="xMidYMid meet" height="1500" width="1500" xmlns="http://www.w3.org/2000/svg" xmlns:xlink="http://www.w3.org/1999/xlink"><g id="tight-bounds" transform="matrix(1,0,0,1,0,0)"><svg viewBox="0 0 280 280" height="280" width="280"><g><svg viewBox="0 0 280 280" height="280" width="280"><g><svg viewBox="0 0 280 280" height="280" width="280"><g id="textblocktransform"><svg viewBox="0 0 280 280" height="280" width="280" id="textblock"><g><svg viewBox="0 0 280 280" height="280" width="280"><g transform="matrix(1,0,0,1,74.00336708925556,90.46155783671128)"><svg viewBox="0 0 131.99326582148888 99.07688432657746" height="99.07688432657746" width="131.99326582148888"><g><svg xmlns="http://www.w3.org/2000/svg" xmlns:xlink="http://www.w3.org/1999/xlink" version="1.1" x="0" y="0" viewBox="13.645 28.166 116.794 87.668" enable-background="new 0 0 144.083 144" xml:space="preserve" height="99.07688432657746" width="131.99326582148888" class="icon-xg-0" data-fill-palette-color="accent" id="xg-0"><path d="M127.438 28.166H16.645c-1.657 0-3 1.343-3 3v29.951c0 1.657 1.343 3 3 3h6.561v48.717c0 1.657 1.343 3 3 3h91.672c1.657 0 3-1.343 3-3V64.117h6.561c1.657 0 3-1.343 3-3V31.166C130.438 29.509 129.095 28.166 127.438 28.166zM124.438 34.166V40.6H19.645v-6.434H124.438zM114.877 109.834H60.586V70.517H37.715v39.317h-8.51V64.117h85.672V109.834zM117.877 58.117H26.206h-6.561V51.85h104.793v6.268H117.877z" fill="#e77917" data-fill-palette-color="accent"></path><path d="M69.815 104.022h36.553c1.657 0 3-1.343 3-3V72.93c0-1.657-1.343-3-3-3H69.815c-1.657 0-3 1.343-3 3v28.093C66.815 102.68 68.158 104.022 69.815 104.022zM72.815 75.93h30.553v22.093H72.815V75.93z" fill="#e77917" data-fill-palette-color="accent"></path></svg></g></svg></g><g><path d="M31.446 90.248l-3.503 10.258c-0.496 1.453-1.276 2.618-2.339 3.495-1.07 0.875-2.274 1.433-3.612 1.676-1.335 0.236-2.665 0.128-3.988-0.324v0c-1.195-0.408-2.222-1.072-3.083-1.993-0.854-0.919-1.399-2.017-1.633-3.294v0c-1.029 0.817-2.138 1.332-3.329 1.545-1.188 0.207-2.331 0.123-3.429-0.251v0c-1.35-0.461-2.464-1.198-3.344-2.213-0.879-1.014-1.464-2.184-1.754-3.508-0.284-1.323-0.2-2.646 0.252-3.97v0l3.542-10.373 3.187 1.088-3.403 9.967c-0.262 0.768-0.309 1.517-0.14 2.245 0.169 0.728 0.498 1.371 0.986 1.926 0.494 0.558 1.129 0.97 1.904 1.235v0c0.723 0.247 1.447 0.292 2.171 0.135 0.724-0.157 1.373-0.483 1.946-0.979 0.575-0.503 0.991-1.129 1.247-1.878v0l2.903-8.505 3.187 1.089-2.814 8.242c-0.315 0.923-0.382 1.784-0.2 2.582 0.186 0.806 0.55 1.504 1.091 2.092 0.535 0.586 1.177 1.008 1.927 1.263v0c0.749 0.256 1.509 0.321 2.28 0.195 0.765-0.128 1.452-0.452 2.062-0.972 0.608-0.513 1.062-1.209 1.362-2.088v0l3.337-9.773z" fill="#3ae2ee" data-fill-palette-color="primary"></path><path d="M40.076 74.63l-1.854 3.137-24.873-14.702 1.854-3.137z" fill="#3ae2ee" data-fill-palette-color="primary"></path><path d="M59.89 51.369l-3.562 3.773c-1.523 1.612-3.174 2.755-4.956 3.429-1.786 0.679-3.56 0.848-5.321 0.507-1.762-0.341-3.382-1.209-4.861-2.605v0c-1.459-1.377-2.487-2.912-3.085-4.603-0.599-1.692-0.734-3.382-0.406-5.071 0.318-1.689 1.141-3.235 2.466-4.64v0c1.429-1.513 2.946-2.464 4.552-2.852 1.601-0.393 3.191-0.318 4.771 0.225 1.57 0.544 3.037 1.46 4.401 2.748v0c0.208 0.197 0.422 0.408 0.641 0.634 0.224 0.23 0.406 0.445 0.547 0.643v0l-10.33 10.939c0.987 0.754 2.03 1.175 3.127 1.264 1.094 0.094 2.167-0.098 3.22-0.577 1.048-0.484 2.015-1.194 2.9-2.132v0l3.619-3.832zM42.843 52.755v0l7.913-8.379c-0.362-0.342-0.787-0.668-1.273-0.977-0.482-0.314-1.013-0.562-1.593-0.744-0.575-0.177-1.171-0.256-1.788-0.238-0.613 0.013-1.236 0.166-1.869 0.459-0.639 0.289-1.255 0.748-1.85 1.377v0c-0.637 0.675-1.066 1.387-1.286 2.137-0.225 0.755-0.292 1.517-0.202 2.286 0.085 0.775 0.309 1.512 0.671 2.211 0.353 0.699 0.779 1.322 1.277 1.868z" fill="#3ae2ee" data-fill-palette-color="primary"></path><path d="M82.914 34.754l-1.998 1.283c-1.757 1.128-3.566 1.759-5.426 1.892-1.865 0.127-3.605-0.19-5.222-0.952-1.62-0.768-2.943-1.95-3.968-3.546v0c-1.029-1.602-1.554-3.296-1.575-5.083-0.021-1.787 0.415-3.502 1.306-5.145 0.895-1.637 2.221-3.02 3.977-4.148v0l1.998-1.283 1.687 2.626-2.101 1.35c-1.131 0.726-1.979 1.64-2.545 2.742-0.566 1.101-0.821 2.263-0.766 3.484 0.045 1.22 0.418 2.375 1.119 3.466v0c0.697 1.085 1.592 1.905 2.686 2.459 1.088 0.558 2.251 0.809 3.488 0.752 1.233-0.062 2.415-0.457 3.546-1.183v0l2.101-1.349z" fill="#3ae2ee" data-fill-palette-color="primary"></path><path d="M106.199 25.15l-4.459 1.635c-1.685 0.618-3.182 0.618-4.491 0-1.309-0.617-2.268-1.756-2.876-3.415v0l-6.715-18.315 3.421-1.255 6.634 18.095c0.301 0.82 0.77 1.386 1.407 1.697 0.631 0.314 1.357 0.32 2.176 0.02v0l3.825-1.402zM100.403 9.103l-13.194 4.837-1.074-2.931 13.194-4.837z" fill="#3ae2ee" data-fill-palette-color="primary"></path><path d="M123.438 21.539l-3.602 0.552-2.19-14.284c-0.272-1.774 0.018-3.237 0.87-4.39 0.851-1.159 2.16-1.874 3.927-2.144v0l4.118-0.631 0.473 3.085-3.45 0.529c-0.857 0.131-1.489 0.484-1.899 1.057-0.403 0.566-0.537 1.294-0.4 2.184v0z" fill="#3ae2ee" data-fill-palette-color="primary"></path><path d="M151.657 21.765v0c-2.047-0.172-3.82-0.79-5.318-1.854-1.499-1.064-2.644-2.43-3.436-4.099-0.784-1.668-1.094-3.488-0.928-5.46v0c0.166-1.972 0.774-3.715 1.825-5.228 1.058-1.513 2.415-2.67 4.071-3.469 1.656-0.806 3.508-1.123 5.554-0.951v0c2.053 0.172 3.836 0.794 5.349 1.866 1.513 1.065 2.658 2.431 3.436 4.099 0.771 1.667 1.073 3.486 0.907 5.458v0c-0.166 1.972-0.767 3.715-1.805 5.23-1.045 1.515-2.402 2.671-4.071 3.469-1.669 0.798-3.531 1.111-5.584 0.939zM151.919 18.654v0c1.394 0.117 2.632-0.111 3.714-0.685 1.081-0.567 1.958-1.387 2.63-2.46 0.672-1.067 1.066-2.297 1.183-3.69v0c0.117-1.394-0.066-2.676-0.55-3.847-0.484-1.164-1.212-2.118-2.184-2.864-0.972-0.739-2.155-1.167-3.549-1.284v0c-1.367-0.115-2.594 0.111-3.682 0.677-1.096 0.572-1.979 1.392-2.651 2.459-0.672 1.073-1.067 2.307-1.184 3.7v0c-0.117 1.394 0.067 2.673 0.551 3.837 0.484 1.17 1.218 2.126 2.204 2.865 0.978 0.746 2.151 1.177 3.518 1.292z" fill="#3ae2ee" data-fill-palette-color="primary"></path><path d="M191.343 33.957v0c-1.296-0.594-2.323-1.425-3.08-2.492-0.76-1.076-1.193-2.269-1.298-3.579-0.112-1.312 0.152-2.666 0.792-4.062v0l5.74-12.523c0.296-0.645 0.409-1.302 0.341-1.972-0.075-0.672-0.305-1.284-0.69-1.836-0.382-0.558-0.883-0.979-1.504-1.263v0c-0.626-0.287-1.27-0.391-1.929-0.311-0.657 0.074-1.258 0.305-1.804 0.694-0.539 0.391-0.957 0.909-1.253 1.553v0l-8.759 19.111-3.452-1.582 8.542-18.636c0.606-1.321 1.438-2.377 2.499-3.167 1.054-0.793 2.24-1.259 3.557-1.398 1.311-0.142 2.64 0.095 3.985 0.712v0c1.365 0.625 2.421 1.481 3.17 2.567 0.754 1.089 1.175 2.291 1.262 3.607 0.094 1.319-0.162 2.639-0.768 3.96v0l-5.74 12.524c-0.307 0.67-0.423 1.333-0.349 1.99 0.08 0.66 0.307 1.263 0.679 1.809 0.37 0.552 0.856 0.966 1.457 1.242v0c0.595 0.273 1.22 0.368 1.874 0.285 0.645-0.08 1.234-0.309 1.767-0.687 0.54-0.376 0.963-0.898 1.271-1.569v0l5.74-12.523c0.606-1.321 1.442-2.375 2.508-3.163 1.073-0.784 2.264-1.248 3.576-1.389 1.317-0.139 2.658 0.104 4.022 0.729v0c1.346 0.617 2.393 1.468 3.142 2.554 0.748 1.086 1.169 2.288 1.262 3.608 0.094 1.319-0.162 2.639-0.768 3.96v0l-8.542 18.636-3.452-1.582 8.76-19.111c0.296-0.645 0.412-1.301 0.35-1.967-0.056-0.664-0.27-1.269-0.643-1.815-0.37-0.552-0.868-0.972-1.495-1.259v0c-0.645-0.296-1.298-0.403-1.957-0.323-0.663 0.071-1.271 0.3-1.822 0.684-0.552 0.385-0.976 0.9-1.272 1.546v0l-5.74 12.523c-0.64 1.396-1.493 2.479-2.56 3.251-1.067 0.772-2.247 1.226-3.54 1.361-1.29 0.129-2.583-0.103-3.879-0.697z" fill="#3ae2ee" data-fill-palette-color="primary"></path><path d="M224.355 56.683v0c-1.374-1.386-2.231-2.914-2.571-4.585-0.34-1.671-0.208-3.344 0.397-5.021 0.605-1.677 1.601-3.202 2.987-4.576v0c1.405-1.393 2.972-2.352 4.701-2.875 1.729-0.523 3.483-0.552 5.262-0.087 1.783 0.461 3.453 1.476 5.01 3.047v0c1.509 1.521 2.472 3.151 2.889 4.89 0.422 1.734 0.364 3.454-0.174 5.159-0.538 1.706-1.5 3.246-2.885 4.62v0l-7.253 7.192-2.594-2.616 2.921-2.897-0.05-0.051c-0.821 0.257-1.717 0.391-2.687 0.401-0.975 0.015-1.975-0.175-3.001-0.57-1.021-0.4-2.005-1.077-2.951-2.031zM227.242 55.161v0c0.927 0.935 1.979 1.535 3.155 1.8 1.176 0.265 2.371 0.196 3.584-0.209 1.213-0.405 2.325-1.11 3.338-2.114v0c0.993-0.985 1.692-2.058 2.098-3.219 0.41-1.166 0.492-2.333 0.246-3.502-0.251-1.164-0.85-2.223-1.796-3.177v0c-1.004-1.013-2.097-1.649-3.278-1.91-1.186-0.256-2.366-0.181-3.54 0.224-1.179 0.41-2.275 1.117-3.287 2.121v0c-0.974 0.966-1.673 2.029-2.098 3.19-0.429 1.166-0.524 2.335-0.282 3.509 0.236 1.178 0.857 2.274 1.86 3.287z" fill="#3ae2ee" data-fill-palette-color="primary"></path><path d="M242.902 79.834l-1.858-3.134 12.429-7.373c1.543-0.915 3.009-1.194 4.396-0.834 1.393 0.356 2.546 1.302 3.458 2.84v0l2.125 3.583-2.685 1.592-1.78-3.002c-0.442-0.745-1.006-1.2-1.691-1.365-0.676-0.163-1.401-0.014-2.175 0.445v0z" fill="#3ae2ee" data-fill-palette-color="primary"></path><path d="M254.985 108.842l-1.499-4.506c-0.566-1.703-0.521-3.199 0.136-4.489 0.657-1.29 1.824-2.214 3.5-2.771v0l18.511-6.157 1.15 3.458-18.287 6.082c-0.829 0.276-1.408 0.727-1.739 1.355-0.333 0.621-0.361 1.346-0.086 2.175v0l1.285 3.865zM271.2 103.536l-4.434-13.335 2.962-0.985 4.434 13.335z" fill="#3ae2ee" data-fill-palette-color="primary"></path><path d="M12.334 196.388l-3.542-10.352c-0.499-1.459-0.595-2.865-0.286-4.218 0.306-1.36 0.921-2.547 1.843-3.562 0.913-1.019 2.038-1.757 3.374-2.215v0c1.207-0.413 2.437-0.517 3.691-0.311 1.253 0.206 2.364 0.745 3.333 1.618v0c0.324-1.286 0.895-2.38 1.712-3.279 0.817-0.9 1.778-1.539 2.882-1.917v0c1.362-0.466 2.705-0.568 4.027-0.307 1.331 0.266 2.518 0.837 3.561 1.714 1.045 0.883 1.796 1.993 2.253 3.328v0l3.579 10.459-3.205 1.097-3.44-10.052c-0.265-0.775-0.689-1.401-1.27-1.88-0.589-0.477-1.252-0.783-1.992-0.92-0.735-0.145-1.493-0.084-2.274 0.183v0c-0.73 0.25-1.335 0.662-1.815 1.238-0.477 0.567-0.791 1.23-0.943 1.988-0.147 0.75-0.092 1.503 0.167 2.258v0l2.932 8.57-3.215 1.1-2.839-8.299c-0.32-0.936-0.801-1.666-1.442-2.189-0.641-0.524-1.36-0.855-2.157-0.993-0.789-0.134-1.561-0.072-2.316 0.187v0c-0.755 0.258-1.399 0.674-1.932 1.245-0.537 0.58-0.888 1.263-1.052 2.047-0.169 0.793-0.103 1.629 0.198 2.507v0l3.373 9.858z" fill="#3ae2ee" data-fill-palette-color="primary"></path><path d="M22.653 215.649l-1.865-3.154 25.075-14.824 1.865 3.154z" fill="#3ae2ee" data-fill-palette-color="primary"></path><path d="M45.181 242.492l-3.583-3.796c-1.536-1.627-2.592-3.357-3.166-5.188-0.579-1.836-0.646-3.631-0.2-5.385 0.442-1.759 1.407-3.341 2.895-4.746v0c1.474-1.391 3.079-2.339 4.817-2.844 1.733-0.5 3.443-0.538 5.13-0.113 1.677 0.425 3.183 1.344 4.518 2.758v0c1.443 1.528 2.317 3.11 2.622 4.746 0.296 1.635 0.127 3.23-0.508 4.785-0.638 1.55-1.645 2.974-3.019 4.272v0c-0.213 0.201-0.441 0.407-0.684 0.617-0.238 0.206-0.464 0.373-0.68 0.502v0l-10.405-11.023c-0.819 0.951-1.307 1.975-1.464 3.071-0.147 1.096-0.012 2.189 0.405 3.277 0.422 1.084 1.081 2.099 1.975 3.048v0l3.64 3.855zM44.78 225.263v0l7.967 8.44c0.367-0.347 0.724-0.754 1.071-1.222 0.342-0.473 0.62-0.993 0.834-1.561 0.209-0.564 0.325-1.156 0.348-1.779 0.013-0.622-0.106-1.26-0.358-1.914-0.256-0.659-0.684-1.306-1.283-1.941v0c-0.642-0.68-1.335-1.151-2.081-1.414-0.74-0.268-1.502-0.379-2.285-0.334-0.788 0.04-1.544 0.219-2.267 0.536-0.724 0.317-1.372 0.713-1.946 1.189z" fill="#3ae2ee" data-fill-palette-color="primary"></path><path d="M71.973 262.231l-2.014-1.296c-1.768-1.136-3.101-2.533-4-4.189-0.902-1.651-1.341-3.377-1.318-5.179 0.021-1.812 0.548-3.521 1.581-5.128v0c1.037-1.613 2.373-2.802 4.009-3.567 1.63-0.769 3.385-1.089 5.264-0.96 1.88 0.13 3.704 0.762 5.472 1.899v0l2.014 1.295-1.704 2.652-2.118-1.362c-1.142-0.734-2.336-1.129-3.583-1.183-1.246-0.055-2.418 0.197-3.516 0.757-1.104 0.556-2.008 1.382-2.713 2.478v0c-0.705 1.096-1.081 2.262-1.128 3.497-0.053 1.231 0.206 2.399 0.776 3.504 0.567 1.111 1.422 2.034 2.565 2.768v0l2.118 1.362z" fill="#3ae2ee" data-fill-palette-color="primary"></path><path d="M99.187 273.791l-4.496-1.652c-1.697-0.624-2.847-1.599-3.45-2.925-0.603-1.327-0.597-2.826 0.017-4.497v0l6.788-18.474 3.439 1.263-6.703 18.244c-0.304 0.826-0.311 1.569-0.022 2.227 0.282 0.656 0.833 1.135 1.653 1.436v0l3.862 1.419zM105.198 257.67l-13.296-4.885 1.088-2.959 13.296 4.885z" fill="#3ae2ee" data-fill-palette-color="primary"></path><path d="M120.205 278.392l-3.631-0.561 2.224-14.393c0.276-1.787 0.998-3.108 2.166-3.964 1.169-0.862 2.647-1.155 4.434-0.878v0l4.147 0.641-0.481 3.115-3.47-0.536c-0.87-0.134-1.587 0.014-2.15 0.444-0.563 0.424-0.913 1.081-1.05 1.971v0z" fill="#3ae2ee" data-fill-palette-color="primary"></path><path d="M153.244 279.314v0c-2.067 0.17-3.936-0.151-5.605-0.965-1.669-0.807-3.032-1.975-4.089-3.504-1.064-1.528-1.678-3.285-1.841-5.27v0c-0.164-1.992 0.153-3.83 0.952-5.512 0.792-1.681 1.946-3.056 3.46-4.126 1.514-1.07 3.304-1.69 5.372-1.86v0c2.074-0.171 3.949 0.147 5.624 0.954 1.682 0.806 3.049 1.974 4.099 3.502 1.044 1.53 1.647 3.291 1.811 5.284v0c0.164 1.986-0.144 3.818-0.922 5.498-0.786 1.681-1.942 3.056-3.47 4.127-1.52 1.077-3.317 1.701-5.391 1.872zM152.985 276.173v0c1.408-0.116 2.601-0.55 3.579-1.302 0.979-0.745 1.715-1.706 2.207-2.883 0.492-1.177 0.68-2.466 0.564-3.867v0c-0.116-1.408-0.513-2.652-1.191-3.732-0.677-1.074-1.56-1.901-2.649-2.483-1.088-0.574-2.336-0.804-3.743-0.687v0c-1.374 0.113-2.557 0.543-3.55 1.289-0.992 0.753-1.735 1.714-2.227 2.884-0.492 1.177-0.68 2.469-0.564 3.877v0c0.116 1.401 0.512 2.642 1.191 3.723 0.678 1.081 1.568 1.908 2.669 2.48 1.102 0.58 2.34 0.813 3.714 0.701z" fill="#3ae2ee" data-fill-palette-color="primary"></path><path d="M200.097 265.273v0c-1.309 0.599-2.621 0.831-3.936 0.697-1.318-0.125-2.513-0.58-3.584-1.365-1.075-0.776-1.935-1.869-2.579-3.277v0l-5.773-12.621c-0.301-0.658-0.732-1.181-1.292-1.57-0.551-0.386-1.166-0.614-1.845-0.687-0.678-0.072-1.331 0.035-1.958 0.321v0c-0.633 0.289-1.135 0.71-1.505 1.263-0.376 0.555-0.596 1.166-0.658 1.832-0.06 0.673 0.06 1.338 0.361 1.995v0l8.812 19.267-3.481 1.592-8.599-18.801c-0.607-1.328-0.863-2.659-0.769-3.993 0.092-1.325 0.517-2.536 1.276-3.633 0.755-1.088 1.812-1.943 3.171-2.565v0c1.378-0.63 2.728-0.876 4.052-0.739 1.32 0.147 2.514 0.617 3.583 1.411 1.071 0.8 1.911 1.865 2.518 3.193v0l5.777 12.63c0.309 0.676 0.738 1.204 1.287 1.584 0.555 0.376 1.165 0.604 1.831 0.681 0.663 0.072 1.296-0.03 1.898-0.305v0c0.608-0.278 1.092-0.687 1.453-1.227 0.364-0.549 0.579-1.154 0.644-1.815 0.066-0.66-0.056-1.329-0.365-2.004v0l-5.777-12.631c-0.607-1.328-0.86-2.66-0.759-3.997 0.11-1.334 0.542-2.548 1.294-3.642 0.761-1.091 1.831-1.952 3.208-2.582v0c1.359-0.622 2.697-0.862 4.014-0.722 1.326 0.144 2.524 0.613 3.593 1.407 1.065 0.803 1.902 1.869 2.509 3.197v0l8.599 18.801-3.481 1.593-8.812-19.267c-0.301-0.658-0.725-1.184-1.274-1.578-0.545-0.388-1.148-0.623-1.807-0.704-0.666-0.078-1.315 0.028-1.949 0.317v0c-0.652 0.298-1.166 0.724-1.542 1.279-0.376 0.555-0.599 1.167-0.668 1.836-0.072 0.678 0.042 1.346 0.343 2.005v0l5.773 12.621c0.644 1.409 0.911 2.772 0.801 4.09-0.113 1.327-0.547 2.527-1.302 3.6-0.746 1.076-1.773 1.914-3.082 2.513z" fill="#3ae2ee" data-fill-palette-color="primary"></path><path d="M239.425 238.17v0c-1.384 1.395-2.919 2.27-4.607 2.625-1.678 0.354-3.364 0.234-5.06-0.363-1.701-0.591-3.249-1.579-4.644-2.962v0c-1.42-1.408-2.401-2.981-2.944-4.721-0.543-1.739-0.586-3.508-0.131-5.304 0.456-1.797 1.469-3.487 3.04-5.072v0c1.518-1.531 3.15-2.517 4.895-2.959 1.754-0.442 3.492-0.396 5.211 0.138 1.72 0.523 3.28 1.48 4.68 2.868v0l7.311 7.25-2.608 2.631-2.951-2.926-0.058 0.058c0.269 0.834 0.415 1.738 0.439 2.712 0.019 0.979-0.165 1.989-0.552 3.027-0.391 1.034-1.065 2.033-2.021 2.998zM237.864 235.267v0c0.937-0.945 1.533-2.011 1.788-3.199 0.26-1.183 0.181-2.387-0.239-3.61-0.42-1.224-1.139-2.34-2.156-3.349v0c-1.003-0.995-2.094-1.692-3.273-2.093-1.174-0.396-2.349-0.465-3.526-0.209-1.171 0.261-2.235 0.873-3.191 1.837v0c-1.014 1.022-1.646 2.13-1.896 3.323-0.246 1.198-0.161 2.387 0.253 3.566 0.42 1.185 1.141 2.285 2.164 3.299v0c0.979 0.971 2.058 1.666 3.236 2.085 1.179 0.42 2.359 0.504 3.54 0.253 1.186-0.246 2.286-0.88 3.3-1.903z" fill="#3ae2ee" data-fill-palette-color="primary"></path><path d="M260.331 210.433l-1.875 3.16-12.525-7.431c-1.555-0.923-2.512-2.085-2.87-3.488-0.364-1.406-0.084-2.886 0.838-4.442v0l2.142-3.609 2.711 1.609-1.792 3.019c-0.449 0.757-0.579 1.477-0.389 2.161 0.184 0.68 0.663 1.25 1.437 1.71v0z" fill="#3ae2ee" data-fill-palette-color="primary"></path><path d="M274.217 177.483l-1.514 4.544c-0.572 1.715-1.511 2.895-2.818 3.538-1.307 0.643-2.806 0.683-4.496 0.121v0l-18.673-6.222 1.158-3.476 18.44 6.144c0.835 0.278 1.577 0.263 2.227-0.046 0.647-0.302 1.109-0.868 1.385-1.696v0l1.3-3.904zM257.92 171.967l-4.477 13.439-2.991-0.997 4.478-13.439z" fill="#3ae2ee" data-fill-palette-color="primary"></path><path d="M0 139.96c0-6.096 4.942-11.037 11.037-11.037 6.096 0 11.037 4.942 11.037 11.037 0 6.096-4.942 11.037-11.037 11.037-6.096 0-11.037-4.942-11.037-11.037z" fill="#3ae2ee" data-fill-palette-color="primary"></path><path d="M257.926 139.96c0-6.096 4.942-11.037 11.037-11.037 6.096 0 11.037 4.942 11.037 11.037 0 6.096-4.942 11.037-11.037 11.037-6.096 0-11.037-4.942-11.037-11.037z" fill="#3ae2ee" data-fill-palette-color="primary"></path></g></svg></g></svg></g></svg></g></svg></g><defs></defs></svg><rect width="280" height="280" fill="none" stroke="none" visibility="hidden"></rect></g></svg></g></svg>